<svg width="1600" height="1092" viewBox="0 0 1600 1092" fill="none" xmlns="http://www.w3.org/2000/svg">
<g clip-path="url(#clip0)">
<rect width="1297" height="1092" fill="white"/>
<path d="M514.5 381.5L511.5 382.5L509 383.5V385H506L504.5 388L506 391H509L511.5 389.5H514.5L517 388L522.5 387L526 388H529H532.5L535.5 387L536.5 385H539.5V382.5L538 380.5H535.5V377.5L532.5 376.5H530.5L532.5 379L530.5 381.5L528 380.5H524.5L521.5 379L519 380.5H517L514.5 381.5Z" fill="white" stroke="black"/>
<path d="M483.5 358.5H480H476.5L475.5 361.5V364L477.5 366.5L481 365.5L482 367.5H483.5L486 369.5L487 372H490L492 373L493 375H496.5V372H495L492 369.5H493V367.5L490 365.5L487 364L486 361.5L483.5 358.5Z" fill="white"/>
<path d="M475.5 358.5H476.5M476.5 358.5H480H483.5L486 361.5L487 364L490 365.5L493 367.5V369.5H492L495 372H496.5V375H493L492 373L490 372H487L486 369.5L483.5 367.5H482L481 365.5L477.5 366.5L475.5 364V361.5L476.5 358.5Z" stroke="black"/>
<path d="M509.5 707L515.5 702H521L525.5 699L530 697H537L542 699L549.5 694.5L553.5 692.5L558.5 694.5H565L568.5 699L575.5 702H579.5L583 699L591.5 702L601 707L609.5 716.5H617L621.5 720.5L625.5 716.5H630.5V723.5H637H642.5L645.5 727.5H651.5V731.5L649 734L639.5 737H630.5H621.5L617 740.5L604 744V737L609.5 731.5L604 727.5L601 737L597 731.5L591.5 727.5V720.5L585.5 716.5L575.5 720.5L568.5 716.5L565 713.5H555H547L535.5 710.5L539.5 707H530H525.5L518 713.5L509.5 720.5L502 716.5V710.5L509.5 707Z" fill="white" stroke="black"/>
<path d="M608.5 763H602L598.5 766.5L596 771L602 774.5" stroke="black"/>
<path d="M616.5 775.5H605H601.5" stroke="black"/>
<path d="M608.5 763H614H619L622 766.5H627H633L629.5 773L625 775L619 773L616.5 775" stroke="black"/>
<path d="M671 752L674 749.5L671 745L668.5 740.5L660.5 736.5V732.5L664.5 729H671H679.5L683.5 725V719.5H691H702H710L705 725L699 728.5L705 732.5H713L719.5 736.5L724.5 740.5L719.5 745L713 749.5L705 745V749.5L699 752H696L693.5 754.5L691 762L687.5 767L683.5 759.5L677.5 758L671 759.5H662.5L658 762H652.5H649.5L647 758L649.5 754.5H652.5H660.5L664.5 752H671Z" fill="white" stroke="black"/>
<path d="M753 735H745L739 740.5V744H745H750H759.5V737.5L753 735Z" fill="white" stroke="black"/>
<path d="M349 184L363 158H381L397 140H381V114L363 94.5H381H409L424.5 124V140V158L409 170H438.5L468.5 158H482.5L468.5 140V124H454.5V114V94.5L438.5 82.5L409 70.5H381H363H335V60.5H309.5H299.5L281.5 82.5L309.5 94.5V114L335 124V140V158L309.5 140H281.5L267.5 124L251.5 94.5V82.5V70.5L267.5 60.5V36.5H251.5H231.5H214L204 48.5L214 70.5L231.5 94.5L214 114L204 94.5V70.5L182 48.5L160 70.5L140 94.5L122.5 82.5V60.5L98.5 48.5L76.5 60.5V82.5V94.5V114L46.5 124L28.5 94.5L9 70.5L-1 60.5" stroke="black"/>
<path d="M612 368L615 366" stroke="black"/>
<path d="M581 498L544 528L526 562.5L544 606L555.5 642.5V668L544 654L526 642.5L514.5 624.5V606L496 585L480 606L461.5 585H436.5L427 599L415.5 606H392.5H365H353.5L333 624.5H314.5L307.5 636.5V649.5V662.5L314.5 672.5L307.5 683.5L300.5 702V719.5L307.5 740.5L323.5 766.5L333 783.5L348.5 789H372L392.5 783.5L405.5 775L415.5 761.5L419.5 745.5L431.5 740.5L446.5 733H461.5H468.5V745.5L461.5 761.5L456.5 783.5V805V820L446.5 832L461.5 825H474L492 821L501 820L519.5 825L531 832V848.5V868L526 884V899L544 915L555.5 922.5L565.5 927.5L578 919L589 915L596.5 910.5H610L623.5 922.5L635 905.5L643.5 892.5V884L656 874L662 868H672L680.5 862L689.5 848.5H699V853.5L689.5 862L699 868L701.5 858H709V848.5L714.5 841V848.5L720.5 858L729 853.5L736.5 858H745L754 853.5L771 858L786.5 841L799.5 832L809.5 837V848.5L814.5 853.5V862L825 858L841.5 874L850.5 884H857L871 874L879 862H887.5L895.5 868L917 892.5L933 905.5L953.5 910.5L969.5 919L985.5 922.5" stroke="black"/>
<path d="M984 922.5H987" stroke="black"/>
<path d="M1.5 425L-0.5 428.5" stroke="black"/>
<path d="M560.5 1134.5V1107L583 1086.5L560.5 1072.5L583 1043L597 1011L613 997V970V938L606.5 926L597 919H591L586.5 926L578 931L583 943L578 946.5H570.5H564.5L560.5 943L555.5 938H544.5H536L528 931V926L519.5 922.5L510.5 919H501.5H493L489 914L493 906.5V897.5L483.5 889L477.5 882.5L468.5 877.5L464 872.5L455.5 868.5H448.5L440.5 864.5H430.5L423 860H413.5H408.5H400.5L394 853L387 847L379.5 840L375 836.5L368 830L357.5 826.5H348L340 830L333.5 833.5L328 836.5L320 833.5L304 830L292 826.5L284.5 821.5L274.5 818.5L264 813.5H254.5L242 803.5L236 798L226.5 795L216 791.5L207 784L199.5 779L190 771.5L183 764V756.5L186.5 750L190 737.5L183 727.5V721L175 713L169 705L155 687L146.5 674L135 663.5V653.5L126.5 646.5L119 640V630L108 622L98.5 614.5V608L92 595V583.5V575H85V566.5H79.5H74L68 575V583.5V590L79.5 601.5L85 608V614.5L92 630L98.5 640L103 650.5L108 663.5L114.5 678.5V687L119 694L130.5 702.5L126.5 705L119 713L114.5 705L108 694L103 687L92 678.5V663.5V653.5L85 650.5L74 646.5L68 640L63.5 632.5L58 630H68L74 622L68 608L58 595V590L50.5 575V561L43 550.5V541L35.5 531L27.5 526V520.5H17.5H11.5V513V502.5L4 491.5L-1.5 485.5" stroke="black"/>
<path d="M0.5 426.5L6.5 416L9.5 402.5V395L15 387L20.5 379L26 369L32.5 355.5L36.5 344.5V334V329.5H45.5H52.5L56.5 325V317H52.5L48.5 312.5H45.5L48.5 317L52.5 321.5V325H48.5H45.5H40.5L36.5 321.5H32.5V317V312.5V308H26V302V297.5H32.5V293.5V287V275V270V264L36.5 261L32.5 256L26 261V256V245.5V240V234.5L29.5 225.5V222L32.5 216L29.5 209.5H26L20.5 205.5H15V200.5H9.5H6.5L0.5 205.5" stroke="black"/>
<path d="M23.5 262.5L20 261L16.5 265L15 268.5L13.5 273.5V278V281L15 283.5L16.5 286L18 283.5V279.5L20 276.5V273.5L21.5 270L24.5 266.5L27 265V262.5H23.5Z" fill="white"/>
<path d="M348.5 183.5L342.5 188L336 195L328.5 200.5L321.5 205.5V211V221H328.5L336 223L342.5 233L344 236.5L352 234.5H361.5L365 236.5L372 238.5L378.5 242L386.5 246L393.5 248L401.5 251L408.5 253.5H417.5H425H431.5L435 257.5V263L438.5 269L440 275L448.5 283L458 288L462.5 292.5L471 297V292.5V288L474.5 286V283L471 277.5L465 272L462.5 266L458 263L453 257.5L458 255.5L465 251L469.5 245V236.5L462.5 229.5L458 225L453 223L448.5 221L443 218.5V215.5L445.5 211V205.5L441.5 204L438.5 200.5H435L436.5 196L433.5 193.5L430.5 189.5L429 186.5H436.5H445.5L451.5 187L455.5 186.5H462.5L467.5 188L474.5 191.5L477 193.5L485 195L491 196L493 200.5L495.5 205.5L499.5 208L507.5 211L514 215.5H520H524.5L526 212L524.5 205.5L522 200.5L520 198.5L523 197L528.5 202L537.5 208L546.5 212L554 218.5H558.5L566.5 225L572.5 229.5L582 234.5L593 241.5H596.5L600 245H604.5L612.5 247L609.5 249L615 251L622 253.5H625.5L630 257.5L635 263L641 269V275L639.5 279L635 277.5L632.5 283V286L630 292.5L623.5 294L620.5 295.5L616.5 294L609.5 295.5H602.5L594.5 296.5L589.5 297L586.5 299L582 303.5L586.5 305.5L582 308L579.5 312L575.5 315V321L572.5 324.5L579.5 318.5L584 315L586.5 312L592.5 309.5L598 308H602.5L609.5 309.5L615 315L612.5 318.5L609.5 321H607H604.5L609.5 324.5L613 323L616.5 324.5V328L618.5 332.5L625.5 339L630 341.5H635L639.5 345H643H646.5L649.5 341.5L651.5 345H653.5L651.5 339V335.5L649.5 332.5V328L655.5 330.5L657.5 335.5H660L664 339L665.5 340.5L664 345L661.5 345.5L659 347L661.5 349.5H657.5V354L653.5 356.5L649.5 359L646.5 362.5L644.5 361.5V359L641 366.5L639.5 372.5V375.5L636.5 376L632.5 375.5L630 372.5L627.5 369.5L625.5 366.5H623.5L625.5 362.5V359L627.5 356.5H630L632.5 354H630V349.5L625.5 354L622 356.5L618.5 359L620.5 362.5V366.5L616.5 362.5L615 366.5M20 261L23.5 262.5H27V265L24.5 266.5L21.5 270L20 273.5V276.5L18 279.5V283.5L16.5 286L15 283.5L13.5 281V278V273.5L15 268.5L16.5 265L20 261Z" stroke="black"/>
<path d="M612.5 368L610 371.5H606.5L603.5 375.5H599L596.5 377.5V382V386.5L599 391L596.5 394.5L603.5 399.5H606.5V401.5L603.5 406.5H606.5L603.5 409.5H599H594L589.5 412H585L583 414L580.5 416.5H585L589.5 414H591.5V416.5L585 421.5H580.5L577 423.5V431.5V438.5L575 443.5L573.5 446L571.5 443.5H569.5L568 445L569.5 448L571.5 451L573.5 455V461.5L571.5 465.5V470.5V475L573.5 480L575 485L580.5 493L583 500H580.5" stroke="black"/>
<path d="M649.5 275L648 272.5H645.5L644 274L643 275L642 276V278H643V280V282L644 285L645.5 288L646.5 291V293L648 294V295.5V299L649.5 300L650.5 301.5V305L649.5 307V308V309V310H651.5L652.5 308L653.5 310V313L652.5 314.5V317L655 319L657 320.5H660L662.5 319L664.5 318H668H671H673.5L675.5 317H677V318H679H680.5V320.5L679 322V323L680.5 324.5L682.5 326L684 324.5L687 323L688.5 322V319V317H691L692 319L693.5 322L695.5 323V320.5H696.5L697.5 323L699.5 324.5H701.5V320.5L699.5 317L698.5 314.5L695.5 312H693.5V310L692 308L689.5 307L688.25 310L687 308V306L688.5 305L687 303L685.5 301.5H684L682.5 303L679 299V295.5L673.5 293L671 291L669 289.5L668 292L666.5 293L663.5 294L661 292V289.5H658.5L656 288L655 289.5V291L652.5 288L651.5 284V281H652.5L650.5 278L649.5 275Z" fill="white"/>
<path d="M689.5 312L688.25 310M688.25 310L687 308V306L688.5 305L687 303L685.5 301.5H684L682.5 303L679 299V295.5L673.5 293L671 291L669 289.5L668 292L666.5 293L663.5 294L661 292V289.5H658.5L656 288L655 289.5V291L652.5 288L651.5 284V281H652.5L650.5 278L649.5 275L648 272.5H645.5L644 274L643 275L642 276V278H643V280V282L644 285L645.5 288L646.5 291V293L648 294V295.5V299L649.5 300L650.5 301.5V305L649.5 307V308V309V310H651.5L652.5 308L653.5 310V313L652.5 314.5V317L655 319L657 320.5H660L662.5 319L664.5 318H668H671H673.5L675.5 317H677V318H679H680.5V320.5L679 322V323L680.5 324.5L682.5 326L684 324.5L687 323L688.5 322V319V317H691L692 319L693.5 322L695.5 323V320.5H696.5L697.5 323L699.5 324.5H701.5V320.5L699.5 317L698.5 314.5L695.5 312H693.5V310L692 308L689.5 307L688.25 310Z" stroke="black"/>
<path d="M616.5 299L612.5 298H611L607.5 297H605.5L602.5 298V299L603.5 300.5H605.5L607.5 301.5L611 302.5L612.5 304.5H615L617.5 306H620H621.5L623.5 307H625.5L627.5 306L629 304.5L625.5 302.5H623.5L620 300.5L616.5 299Z" fill="white" stroke="black"/>
<path d="M629.5 334L627.5 330.5H626V332V334L627.5 335.5L629.5 337.5L633 339.5H636L638.5 341H640L642 342H644.5L646.5 339.5V337.5V335.5L644.5 334L642 335.5H638.5H636L634 334H632H629.5Z" fill="white" stroke="black"/>
<path d="M372.5 350H363L367.5 346.5L372.5 343L377 339.5L379.5 337.5H386.5L390 335L395 329L400.5 326H409.106H415L418.5 329L422 335L427 337.5L432.5 335V339.5L437 343L440 346.5L442.5 350L440 353L437 350H432.5H425.5L418.5 353L409.106 350L400.5 346.5L405 344.5L409.106 343V339.5H407L400.5 343L395 346.5L386.5 350L384 353L377 350L379.5 346.5L372.5 350Z" fill="white" stroke="black"/>
<path d="M411.5 375.5L415 372L417.25 369.5L411.5 375.5Z" fill="white"/>
<path d="M417.25 369.5L419.5 367H423.5L419.5 372L418 380L415 385L418 389.5L415 396.5L418 403L419.5 409V412.5L423.5 418H427.5L431.5 414.5L434 412.5V409V401L430 393L427.5 385L430 375.5L434 372L439 367V359.5H434H427.5L423.5 363.5L415 367M417.25 369.5L415 372L411.5 375.5L417.25 369.5Z" stroke="black"/>
<path d="M452 364.5L447 361.5L446 360L447 358.5H452L453 360H456H459.5V361.5L462 363L463 361.5H465L469 363H473V365.5L474.5 369H477.5H479.5L482 372V374.5L480.5 377.5V380.5V383L482 387L483 388.5L482 391L479.5 394.5H476L474.5 391L473 388.5V386L470.5 383L467.5 382L465 383L462 384.5V387L459.5 388.5L458 386L457 383L459.5 384.5L461 382V380.5L463 377.5L461 374.5V372L463 370.5L461 369L459.5 367L456 365.5L452 364.5Z" fill="white" stroke="black"/>
<path d="M415.5 367L412 375" stroke="black"/>
<path d="M498.5 401L492 399.5L489.5 402L486 403.5V407H483L480.5 408V410H477.5H472.5L470 412L472.5 414L475.5 416.5V412H478.5V415.5L481.5 417.5L485 415.5H488.5L492 412L496 410L499.5 408H502.5L505.5 405.5L510.5 402L513.5 399.5L514.5 396L515.5 394.5H510.5L508.5 396H504.5L502.5 398V399.5H504.5V401H498.5Z" fill="white" stroke="black"/>
<path d="M996.5 800C996.5 1229.93 632.752 1578.5 184 1578.5C-264.752 1578.5 -628.5 1229.93 -628.5 800C-628.5 370.066 -264.752 21.5 184 21.5C632.752 21.5 996.5 370.066 996.5 800Z" stroke="#2F80ED"/>
</g>
<defs>
<clipPath id="clip0">
<rect width="1297" height="1092" fill="white"/>
</clipPath>
</defs>
</svg>
